<svg version="1.1" id="Layer_1" xmlns="http://www.w3.org/2000/svg" xmlns:xlink="http://www.w3.org/1999/xlink" x="0px" y="0px" viewBox="0 0 112.3 40" style="enable-background:new 0 0 112.3 40;" xml:space="preserve">
 <style type="text/css">
  .st0{fill:#461BFF;}
 </style>
 <g>
  <path class="st0" d="M91.6,8.1c-2.4,0-4.1-1.8-4.1-4c0-2.3,1.8-4,4.1-4c2.4,0,4.1,1.8,4.1,4C95.7,6.2,94,8.1,91.6,8.1 M111,39.2
		h0.8c0.3,0,0.6-0.2,0.6-0.6v-4.4c0-0.3-0.2-0.6-0.4-0.7c-3.1-1.2-4.1-3.1-4.1-7.7V1.5c0-0.3-0.2-0.6-0.6-0.6h-6
		c-0.3,0-0.6,0.2-0.6,0.6v24.9C100.7,34,104.8,39.2,111,39.2 M39.9,39.1h6c0.3,0,0.6-0.2,0.6-0.6V24.2c0-2.6-0.4-4.9-1.2-6.7
		c2.5-1,4.9-1.5,6.4-1.5c3.7,0,5.5,2.3,5.5,7.1v15.4c0,0.3,0.2,0.6,0.6,0.6h6c0.3,0,0.6-0.2,0.6-0.6V23c0-2.2-0.4-4.1-1-5.8
		c2.3-0.8,4.6-1.2,6.2-1.2c3.7,0,5.5,2.3,5.5,7.1v15.4c0,0.3,0.2,0.6,0.6,0.6h6c0.3,0,0.6-0.2,0.6-0.6V23c0-7.6-3.5-12.7-11-12.6
		c-3.5,0.1-6.9,0.9-10.5,2.6c-1.9-1.7-4.5-2.6-7.7-2.6c-3.5,0-6.7,1.3-10.6,3c-1.4-1-3.9-1.9-5.7-1.9h-0.9c-0.3,0-0.6,0.2-0.6,0.6
		v4.5c0,0.3,0.2,0.6,0.4,0.7c3.1,1.2,4.1,3.1,4.1,7.7v13.7C39.4,38.8,39.6,39.1,39.9,39.1 M14.6,40c4.5,0,7.9-2,10.4-4.6
		c2,2.2,4.6,3.7,8.4,3.7h0.7c0.3,0,0.6-0.2,0.6-0.6v-4.2c0-0.3-0.2-0.6-0.4-0.7c-3.1-1.2-4.1-3.1-4.1-7.7V11.8
		c0-0.3-0.2-0.6-0.6-0.6h-5.9c-0.3,0-0.6,0.2-0.6,0.6v1.9c-1.7-1.7-4.6-3.4-8.6-3.4C6.9,10.3,0,16.8,0,25.3C0,34.4,6.8,40,14.6,40
		 M88.6,39.1h6c0.3,0,0.6-0.2,0.6-0.6V11.8c0-0.3-0.2-0.6-0.6-0.6h-6c-0.3,0-0.6,0.2-0.6,0.6v26.7C88.1,38.8,88.3,39.1,88.6,39.1
		 M15.3,33.9c-5,0-8.7-4-8.7-8.7c0-4.8,3.7-8.7,8.7-8.7c5,0,8.6,3.9,8.6,8.7C23.9,29.9,20.2,33.9,15.3,33.9">
  </path>
 </g>
</svg>